<svg width="65" height="53" viewBox="0 0 65 53" fill="none" xmlns="http://www.w3.org/2000/svg">
<g clip-path="url(#clip0_1_2)">
<rect width="65" height="53" fill="white"/>
<rect x="-19.5" y="-5.5" width="95" height="119" rx="4.5" stroke="#9747FF" stroke-dasharray="10 5"/>
<ellipse cx="32.5" cy="28" rx="14.5" ry="14" fill="url(#paint0_linear_1_2)" fill-opacity="0.8" style="mix-blend-mode:multiply"/>
<path d="M18.1066 41C16.5656 2.14651 36.7268 15.2881 47 26.7156H0" stroke="#DCCCD3" stroke-opacity="0.8"/>
<g filter="url(#filter0_d_1_2)">
<path d="M23.92 34.464C23.824 34.464 23.728 34.456 23.632 34.44C23.536 34.44 23.432 34.432 23.32 34.416C23.304 34.416 23.264 34.392 23.2 34.344C23.136 34.312 23.088 34.296 23.056 34.296C22.96 34.296 22.856 34.288 22.744 34.272C22.648 34.272 22.544 34.264 22.432 34.248C22.416 34.232 22.4 34.208 22.384 34.176C22.384 34.16 22.368 34.152 22.336 34.152C22.32 34.152 22.312 34.152 22.312 34.152C22.328 34.168 22.328 34.176 22.312 34.176C22.296 34.176 22.256 34.16 22.192 34.128C22.144 34.096 22.104 34.072 22.072 34.056V34.008C22.008 33.992 21.968 33.968 21.952 33.936C21.936 33.92 21.92 33.912 21.904 33.912H21.856C21.824 33.912 21.808 33.904 21.808 33.888C21.744 33.856 21.664 33.808 21.568 33.744C21.472 33.696 21.408 33.648 21.376 33.6C21.312 33.584 21.272 33.56 21.256 33.528C21.24 33.512 21.216 33.488 21.184 33.456C21.168 33.424 21.152 33.408 21.136 33.408C21.136 33.424 21.128 33.424 21.112 33.408C21.048 33.312 20.968 33.232 20.872 33.168C20.872 33.152 20.864 33.136 20.848 33.12C20.848 33.12 20.848 33.112 20.848 33.096C20.816 33.096 20.792 33.088 20.776 33.072C20.76 33.04 20.752 33.016 20.752 33C20.752 32.968 20.736 32.952 20.704 32.952C20.688 32.872 20.664 32.816 20.632 32.784C20.6 32.752 20.568 32.704 20.536 32.64C20.52 32.608 20.512 32.576 20.512 32.544C20.512 32.496 20.496 32.472 20.464 32.472V32.448C20.48 32.416 20.456 32.328 20.392 32.184C20.344 32.024 20.32 31.888 20.32 31.776L20.272 31.752C20.224 31.672 20.192 31.576 20.176 31.464C20.176 31.352 20.184 31.24 20.2 31.128C20.232 31 20.232 30.944 20.2 30.96C20.168 30.976 20.168 30.896 20.2 30.72L20.368 30.384C20.368 30.352 20.36 30.32 20.344 30.288C20.328 30.256 20.32 30.232 20.32 30.216C20.32 30.2 20.328 30.184 20.344 30.168C20.36 30.152 20.368 30.136 20.368 30.12C20.384 30.088 20.392 30.04 20.392 29.976C20.392 29.912 20.4 29.872 20.416 29.856C20.432 29.824 20.456 29.8 20.488 29.784C20.52 29.752 20.544 29.728 20.56 29.712L20.68 29.424C20.712 29.392 20.736 29.368 20.752 29.352C20.784 29.32 20.808 29.288 20.824 29.256C20.856 29.208 20.88 29.168 20.896 29.136C20.912 29.088 20.936 29.04 20.968 28.992C20.984 28.96 21.008 28.928 21.04 28.896C21.088 28.864 21.12 28.84 21.136 28.824C21.216 28.776 21.28 28.752 21.328 28.752C21.392 28.752 21.432 28.816 21.448 28.944L21.424 29.064C21.36 29.144 21.296 29.216 21.232 29.28C21.168 29.328 21.096 29.384 21.016 29.448C21.016 29.464 21.008 29.488 20.992 29.52C20.992 29.536 20.992 29.56 20.992 29.592C20.96 29.592 20.944 29.608 20.944 29.64C20.944 29.656 20.936 29.68 20.92 29.712C20.92 29.728 20.896 29.76 20.848 29.808C20.832 29.84 20.816 29.88 20.8 29.928C20.8 29.96 20.792 29.992 20.776 30.024L20.704 30.072L20.68 30.648C20.696 30.664 20.712 30.664 20.728 30.648C20.744 30.68 20.752 30.728 20.752 30.792V30.816L20.728 30.84V31.032C20.712 31.048 20.704 31.064 20.704 31.08C20.704 31.096 20.712 31.12 20.728 31.152C20.744 31.168 20.752 31.192 20.752 31.224C20.736 31.24 20.728 31.264 20.728 31.296C20.728 31.328 20.744 31.36 20.776 31.392V31.464C20.808 31.512 20.848 31.56 20.896 31.608C20.944 31.64 20.984 31.672 21.016 31.704L21.208 31.776C21.496 31.984 21.712 32.128 21.856 32.208C22 32.288 22.24 32.376 22.576 32.472C22.704 32.504 22.832 32.544 22.96 32.592C23.088 32.624 23.216 32.64 23.344 32.64C23.36 32.64 23.368 32.648 23.368 32.664C23.368 32.664 23.376 32.664 23.392 32.664C23.456 32.664 23.512 32.672 23.56 32.688C23.624 32.704 23.688 32.712 23.752 32.712C23.768 32.712 23.784 32.712 23.8 32.712C23.816 32.696 23.832 32.688 23.848 32.688C23.88 32.688 23.904 32.696 23.92 32.712C23.936 32.712 23.952 32.712 23.968 32.712C24.096 32.712 24.224 32.712 24.352 32.712C24.48 32.712 24.6 32.704 24.712 32.688C24.84 32.688 24.968 32.672 25.096 32.64C25.224 32.608 25.344 32.592 25.456 32.592C25.68 32.576 25.896 32.536 26.104 32.472C26.328 32.392 26.544 32.32 26.752 32.256C26.768 32.24 26.904 32.184 27.16 32.088C27.432 31.976 27.712 31.856 28 31.728C28.064 31.536 28.096 31.304 28.096 31.032C28.096 30.584 28 30.184 27.808 29.832C27.808 29.832 27.768 29.808 27.688 29.76C27.608 29.696 27.56 29.664 27.544 29.664V29.616C27.544 29.536 27.504 29.496 27.424 29.496C27.344 29.48 27.272 29.432 27.208 29.352C27.176 29.304 27.136 29.264 27.088 29.232V29.208C27.04 29.176 27.032 29.152 27.064 29.136C27.112 29.104 27.144 29.08 27.16 29.064L27.112 29.016H27.088C27.056 28.984 27.016 28.96 26.968 28.944C26.92 28.928 26.88 28.896 26.848 28.848L26.728 28.752C26.712 28.72 26.68 28.704 26.632 28.704C26.584 28.704 26.544 28.696 26.512 28.68C26.448 28.632 26.376 28.576 26.296 28.512C26.216 28.448 26.136 28.4 26.056 28.368H26.032C25.968 28.336 25.904 28.296 25.84 28.248C25.792 28.2 25.728 28.16 25.648 28.128C25.632 28.096 25.608 28.096 25.576 28.128C25.56 28.144 25.544 28.144 25.528 28.128C25.464 28.096 25.408 28.048 25.36 27.984C25.312 27.904 25.248 27.864 25.168 27.864H25.144C25.096 27.832 25.056 27.784 25.024 27.72C25.008 27.64 24.984 27.584 24.952 27.552C24.808 27.472 24.664 27.416 24.52 27.384C24.376 27.352 24.232 27.312 24.088 27.264C23.992 27.216 23.872 27.192 23.728 27.192C23.6 27.176 23.496 27.16 23.416 27.144C23.32 27.112 23.272 27.064 23.272 27C23.272 26.92 23.352 26.84 23.512 26.76C23.576 26.728 23.648 26.712 23.728 26.712C23.808 26.696 23.88 26.688 23.944 26.688C24.12 26.688 24.392 26.64 24.76 26.544C25.144 26.448 25.576 26.32 26.056 26.16C26.536 25.984 27 25.8 27.448 25.608C27.544 25.576 27.616 25.544 27.664 25.512C27.728 25.48 27.776 25.488 27.808 25.536C27.776 25.536 27.76 25.56 27.76 25.608C27.84 25.608 27.888 25.584 27.904 25.536C27.936 25.472 27.968 25.408 28 25.344H28.024L28.48 25.104C28.544 25.088 28.6 25.096 28.648 25.128C28.712 25.144 28.768 25.136 28.816 25.104C28.8 25.072 28.776 25.048 28.744 25.032C28.728 25 28.744 24.968 28.792 24.936C28.824 24.904 28.848 24.888 28.864 24.888C28.96 24.824 29.048 24.784 29.128 24.768C29.224 24.736 29.296 24.672 29.344 24.576C29.6 24.4 29.816 24.216 29.992 24.024C30.168 23.816 30.256 23.624 30.256 23.448C30.256 23.224 30.096 23.032 29.776 22.872C29.472 22.696 28.92 22.552 28.12 22.44C28.088 22.44 28.056 22.44 28.024 22.44C27.992 22.424 27.96 22.416 27.928 22.416C27.72 22.416 27.52 22.368 27.328 22.272C27.344 22.336 27.312 22.368 27.232 22.368C27.008 22.352 26.784 22.344 26.56 22.344C26.336 22.328 26.12 22.32 25.912 22.32C25.56 22.32 25.232 22.328 24.928 22.344C24.64 22.36 24.432 22.376 24.304 22.392C24.176 22.408 24.04 22.424 23.896 22.44C23.768 22.44 23.64 22.456 23.512 22.488C23.416 22.456 23.32 22.472 23.224 22.536H23.2C23.088 22.552 22.976 22.568 22.864 22.584C22.752 22.6 22.632 22.624 22.504 22.656C22.44 22.672 22.368 22.688 22.288 22.704C22.208 22.704 22.128 22.72 22.048 22.752L21.568 22.848C21.504 22.896 21.432 22.936 21.352 22.968C21.288 22.984 21.216 22.984 21.136 22.968H21.112L20.656 23.088H20.632C20.584 23.088 20.528 23.056 20.464 22.992C20.416 22.912 20.384 22.84 20.368 22.776C20.352 22.872 20.328 22.976 20.296 23.088C20.264 23.2 20.208 23.256 20.128 23.256L19.456 23.472C19.392 23.488 19.32 23.496 19.24 23.496C19.16 23.496 19.08 23.496 19 23.496C18.92 23.496 18.856 23.504 18.808 23.52C18.76 23.536 18.728 23.576 18.712 23.64C18.712 23.688 18.688 23.728 18.64 23.76C18.576 23.824 18.496 23.872 18.4 23.904C18.304 23.92 18.216 23.944 18.136 23.976H18.112C18.08 23.976 18.032 23.96 17.968 23.928C17.92 23.896 17.88 23.888 17.848 23.904C17.832 23.92 17.816 23.96 17.8 24.024C17.784 24.088 17.76 24.128 17.728 24.144V24.168C17.632 24.2 17.528 24.24 17.416 24.288C17.304 24.336 17.2 24.384 17.104 24.432C17.008 24.48 16.896 24.536 16.768 24.6C16.656 24.648 16.56 24.68 16.48 24.696C16.448 24.696 16.432 24.664 16.432 24.6C16.448 24.536 16.44 24.52 16.408 24.552C16.312 24.6 16.216 24.688 16.12 24.816C16.024 24.944 15.936 25.032 15.856 25.08C15.776 25.144 15.688 25.176 15.592 25.176C15.512 25.176 15.432 25.208 15.352 25.272C15.304 25.32 15.256 25.4 15.208 25.512C15.176 25.608 15.136 25.68 15.088 25.728C14.96 25.856 14.832 26.008 14.704 26.184C14.688 26.216 14.664 26.248 14.632 26.28C14.6 26.312 14.584 26.352 14.584 26.4H14.56C14.464 26.592 14.416 26.776 14.416 26.952C14.416 27.304 14.544 27.56 14.8 27.72C15.072 27.88 15.376 28 15.712 28.08C15.776 28.096 15.832 28.12 15.88 28.152C15.944 28.184 16.008 28.192 16.072 28.176C16.136 28.144 16.192 28.128 16.24 28.128C16.32 28.128 16.384 28.16 16.432 28.224L16.792 28.296C16.984 28.344 17.08 28.392 17.08 28.44C17.08 28.472 17.032 28.504 16.936 28.536C16.856 28.552 16.776 28.56 16.696 28.56C16.408 28.56 16.056 28.504 15.64 28.392C15.224 28.264 14.848 28.08 14.512 27.84C14.176 27.584 13.984 27.272 13.936 26.904C13.936 26.888 13.912 26.848 13.864 26.784C13.832 26.72 13.808 26.664 13.792 26.616C13.744 26.472 13.72 26.328 13.72 26.184C13.72 25.912 13.776 25.656 13.888 25.416C14.016 25.176 14.184 24.952 14.392 24.744C14.472 24.664 14.544 24.608 14.608 24.576C14.688 24.544 14.776 24.496 14.872 24.432C14.968 24.368 15.016 24.312 15.016 24.264C15.016 24.216 15.064 24.16 15.16 24.096C15.288 24.016 15.464 23.92 15.688 23.808C15.928 23.696 16.112 23.608 16.24 23.544C16.336 23.544 16.424 23.504 16.504 23.424C16.824 23.28 17.16 23.152 17.512 23.04C17.864 22.912 18.216 22.792 18.568 22.68C18.664 22.632 18.76 22.608 18.856 22.608C18.952 22.608 19.024 22.632 19.072 22.68C19.072 22.648 19.064 22.624 19.048 22.608C19.048 22.576 19.064 22.552 19.096 22.536C19.496 22.408 19.896 22.304 20.296 22.224C20.696 22.128 21.08 22.048 21.448 21.984H21.472C21.52 21.984 21.592 21.968 21.688 21.936H21.712C21.744 21.936 21.768 21.936 21.784 21.936C21.816 21.92 21.848 21.912 21.88 21.912C21.976 21.96 22.072 21.944 22.168 21.864C22.6 21.784 23 21.728 23.368 21.696C23.736 21.648 24.048 21.624 24.304 21.624H24.376C24.408 21.624 24.44 21.624 24.472 21.624C24.52 21.608 24.56 21.6 24.592 21.6H24.832C24.88 21.584 24.928 21.584 24.976 21.6C25.04 21.6 25.088 21.6 25.12 21.6H25.144C25.336 21.6 25.536 21.608 25.744 21.624C25.968 21.624 26.192 21.624 26.416 21.624H26.44C26.504 21.64 26.552 21.664 26.584 21.696C26.632 21.728 26.688 21.712 26.752 21.648C27.184 21.664 27.616 21.712 28.048 21.792C28.288 21.824 28.576 21.888 28.912 21.984C29.264 22.064 29.6 22.184 29.92 22.344C30.24 22.488 30.504 22.672 30.712 22.896C30.936 23.12 31.048 23.392 31.048 23.712C31.048 23.84 31.024 23.976 30.976 24.12C30.928 24.264 30.84 24.4 30.712 24.528C30.584 24.64 30.456 24.76 30.328 24.888L30.04 25.152L29.872 25.2L29.68 25.296C29.328 25.456 28.944 25.64 28.528 25.848C28.112 26.04 27.672 26.192 27.208 26.304L26.992 26.352H26.968V26.376H26.944C26.912 26.392 26.872 26.4 26.824 26.4C26.776 26.384 26.728 26.392 26.68 26.424C25.896 26.632 25.152 26.776 24.448 26.856C24.288 26.872 24.208 26.904 24.208 26.952C24.208 26.984 24.264 27.024 24.376 27.072C24.504 27.104 24.6 27.136 24.664 27.168C24.968 27.264 25.288 27.368 25.624 27.48C25.96 27.576 26.304 27.696 26.656 27.84C26.752 27.856 26.848 27.888 26.944 27.936C27.056 27.984 27.136 28.056 27.184 28.152C27.2 28.12 27.224 28.112 27.256 28.128C27.288 28.144 27.312 28.152 27.328 28.152C27.536 28.248 27.736 28.352 27.928 28.464C28.12 28.576 28.296 28.696 28.456 28.824C28.488 28.904 28.504 28.944 28.504 28.944C28.616 28.944 28.696 28.976 28.744 29.04C28.792 29.104 28.848 29.176 28.912 29.256C29.088 29.448 29.224 29.656 29.32 29.88C29.416 30.088 29.464 30.312 29.464 30.552C29.464 30.616 29.456 30.68 29.44 30.744C29.44 30.808 29.432 30.88 29.416 30.96C29.784 30.752 30.056 30.48 30.232 30.144C30.264 30.096 30.304 30.072 30.352 30.072C30.448 30.072 30.48 30.128 30.448 30.24C30.368 30.448 30.216 30.68 29.992 30.936C29.784 31.176 29.544 31.36 29.272 31.488C29.272 31.504 29.264 31.52 29.248 31.536C29.168 31.728 29.088 31.872 29.008 31.968C28.992 32.032 28.96 32.08 28.912 32.112C28.88 32.144 28.856 32.184 28.84 32.232L28.816 32.256L28.72 32.304C28.704 32.32 28.688 32.344 28.672 32.376C28.672 32.408 28.656 32.44 28.624 32.472C28.656 32.504 28.648 32.52 28.6 32.52C28.2 33 27.688 33.4 27.064 33.72H27.04C26.928 33.784 26.888 33.8 26.92 33.768C26.952 33.752 26.952 33.728 26.92 33.696H26.896C26.768 33.76 26.688 33.808 26.656 33.84C26.608 33.84 26.552 33.856 26.488 33.888C26.44 33.92 26.416 33.936 26.416 33.936H26.296C26.28 33.936 26.24 33.952 26.176 33.984C26.128 34.032 26.088 34.064 26.056 34.08C25.976 34.08 25.92 34.104 25.888 34.152C25.856 34.152 25.816 34.152 25.768 34.152C25.72 34.152 25.672 34.16 25.624 34.176C25.608 34.192 25.528 34.2 25.384 34.2C25.256 34.216 25.176 34.232 25.144 34.248C25.128 34.264 25.072 34.288 24.976 34.32C24.88 34.352 24.816 34.368 24.784 34.368C24.768 34.368 24.752 34.36 24.736 34.344C24.736 34.344 24.728 34.344 24.712 34.344C24.696 34.344 24.68 34.352 24.664 34.368C24.648 34.4 24.624 34.416 24.592 34.416C24.56 34.416 24.528 34.408 24.496 34.392C24.464 34.376 24.432 34.368 24.4 34.368C24.384 34.368 24.352 34.376 24.304 34.392C24.272 34.424 24.24 34.44 24.208 34.44C24.176 34.44 24.144 34.432 24.112 34.416C24.096 34.416 24.064 34.424 24.016 34.44C23.984 34.456 23.952 34.464 23.92 34.464ZM17.944 34.728C17.832 34.728 17.776 34.608 17.776 34.368C17.776 34.208 17.808 34.008 17.872 33.768C17.952 33.544 18.048 33.28 18.16 32.976C18.288 32.864 18.352 32.72 18.352 32.544C18.384 32.56 18.4 32.56 18.4 32.544C18.416 32.512 18.424 32.496 18.424 32.496C18.456 32.448 18.472 32.4 18.472 32.352C18.472 32.288 18.48 32.232 18.496 32.184C18.784 31.464 19.152 30.68 19.6 29.832C19.632 29.768 19.664 29.752 19.696 29.784C19.744 29.8 19.776 29.792 19.792 29.76C19.808 29.744 19.816 29.704 19.816 29.64C19.816 29.592 19.808 29.544 19.792 29.496C19.792 29.448 19.816 29.392 19.864 29.328L20.2 28.728C20.664 27.896 21.128 27.096 21.592 26.328C22.072 25.56 22.52 24.968 22.936 24.552L23.008 24.504L23.08 24.384C23.08 24.384 23.096 24.376 23.128 24.36C23.16 24.344 23.184 24.352 23.2 24.384C23.2 24.4 23.184 24.432 23.152 24.48C23.136 24.528 23.128 24.56 23.128 24.576C23.176 24.656 23.232 24.664 23.296 24.6C23.312 24.568 23.312 24.496 23.296 24.384C23.28 24.272 23.28 24.216 23.296 24.216C23.328 24.2 23.344 24.2 23.344 24.216C23.36 24.232 23.376 24.24 23.392 24.24C23.424 24.24 23.44 24.216 23.44 24.168C23.44 24.12 23.448 24.088 23.464 24.072C23.64 24.008 23.8 23.976 23.944 23.976C24.024 23.976 24.136 24.016 24.28 24.096C24.44 24.176 24.52 24.288 24.52 24.432C24.52 24.512 24.48 24.608 24.4 24.72C24.384 24.736 24.368 24.768 24.352 24.816C24.336 24.848 24.312 24.88 24.28 24.912C24.264 24.928 24.248 24.936 24.232 24.936C24.232 24.92 24.216 24.92 24.184 24.936C24.168 24.952 24.144 24.96 24.112 24.96C24.096 24.944 24.072 24.936 24.04 24.936C24.008 24.936 24 24.96 24.016 25.008C24.048 25.056 24.056 25.088 24.04 25.104C24.024 25.12 24.008 25.12 23.992 25.104C23.976 25.088 23.952 25.096 23.92 25.128C23.904 25.144 23.912 25.16 23.944 25.176C23.992 25.176 24 25.192 23.968 25.224C23.872 25.32 23.752 25.424 23.608 25.536C23.48 25.632 23.352 25.728 23.224 25.824C23.208 25.84 23.192 25.84 23.176 25.824C23.16 25.792 23.144 25.784 23.128 25.8L22.96 26.04C22.8 26.2 22.64 26.368 22.48 26.544C22.32 26.72 22.152 26.92 21.976 27.144C21.928 27.24 21.872 27.328 21.808 27.408C21.744 27.488 21.656 27.52 21.544 27.504C21.544 27.52 21.56 27.544 21.592 27.576C21.624 27.592 21.624 27.624 21.592 27.672C21.32 28.056 21.048 28.456 20.776 28.872C20.504 29.288 20.248 29.72 20.008 30.168C19.896 30.36 19.76 30.608 19.6 30.912L19.384 31.344C19.368 31.392 19.344 31.416 19.312 31.416C19.296 31.4 19.272 31.392 19.24 31.392C19.272 31.456 19.288 31.512 19.288 31.56C19.288 31.688 19.216 31.824 19.072 31.968C18.864 32.448 18.672 32.904 18.496 33.336C18.32 33.768 18.184 34.168 18.088 34.536C18.056 34.664 18.008 34.728 17.944 34.728ZM24.016 34.056H24.064C24.096 34.072 24.136 34.056 24.184 34.008H24.28C24.344 33.976 24.384 33.96 24.4 33.96C24.432 33.96 24.456 33.976 24.472 34.008C24.488 34.056 24.528 34.056 24.592 34.008L24.688 33.984C24.72 33.952 24.752 33.936 24.784 33.936C24.816 33.936 24.848 33.928 24.88 33.912C24.912 33.896 24.928 33.872 24.928 33.84C24.944 33.824 24.968 33.824 25 33.84C25.032 33.84 25.048 33.84 25.048 33.84C25.064 33.856 25.08 33.864 25.096 33.864H25.12C25.168 33.864 25.232 33.84 25.312 33.792C25.392 33.744 25.432 33.72 25.432 33.72C25.464 33.72 25.496 33.696 25.528 33.648C25.56 33.616 25.584 33.6 25.6 33.6L25.792 33.552C25.888 33.504 25.96 33.48 26.008 33.48C26.024 33.448 26.072 33.416 26.152 33.384C26.232 33.352 26.272 33.328 26.272 33.312C26.304 33.28 26.352 33.256 26.416 33.24C26.48 33.224 26.52 33.208 26.536 33.192C26.6 33.192 26.752 33.096 26.992 32.904C27.248 32.712 27.464 32.464 27.64 32.16C27.656 32.128 27.608 32.136 27.496 32.184C27.384 32.232 27.264 32.288 27.136 32.352C27.024 32.4 26.96 32.424 26.944 32.424C26.928 32.424 26.888 32.456 26.824 32.52C26.76 32.568 26.72 32.592 26.704 32.592C26.672 32.624 26.64 32.64 26.608 32.64C26.608 32.64 26.576 32.624 26.512 32.592V32.64C26.48 32.64 26.456 32.648 26.44 32.664C26.424 32.664 26.4 32.664 26.368 32.664C26.336 32.664 26.288 32.68 26.224 32.712C26.16 32.744 26.12 32.76 26.104 32.76C26.088 32.76 26.064 32.768 26.032 32.784C26.016 32.784 25.992 32.776 25.96 32.76C25.896 32.824 25.776 32.872 25.6 32.904C25.424 32.936 25.296 32.952 25.216 32.952C25.2 32.952 25.192 32.952 25.192 32.952C25.208 32.936 25.208 32.928 25.192 32.928C25.176 32.928 25.16 32.936 25.144 32.952C25.128 32.952 25.104 32.952 25.072 32.952L25.024 33H24.832C24.784 33 24.728 33.008 24.664 33.024C24.616 33.04 24.576 33.04 24.544 33.024H24.496C24.48 33.024 24.456 33.024 24.424 33.024C24.408 33.04 24.384 33.048 24.352 33.048C24.336 33.048 24.32 33.04 24.304 33.024C24.304 33.008 24.288 32.992 24.256 32.976C24.24 32.976 24.224 32.984 24.208 33C24.192 33.032 24.168 33.048 24.136 33.048C24.12 33.048 24.104 33.04 24.088 33.024C24.088 33.024 24.08 33.024 24.064 33.024H23.968C23.968 33.04 23.952 33.048 23.92 33.048C23.904 33.048 23.896 33.04 23.896 33.024C23.896 33.024 23.888 33.024 23.872 33.024C23.84 33.024 23.8 33.032 23.752 33.048C23.72 33.064 23.688 33.072 23.656 33.072H23.608C23.608 33.04 23.592 33.016 23.56 33V33.024H23.344C23.248 33.008 23.152 32.976 23.056 32.928C22.96 32.88 22.872 32.848 22.792 32.832C22.776 32.832 22.76 32.84 22.744 32.856C22.744 32.872 22.736 32.88 22.72 32.88C22.704 32.88 22.688 32.872 22.672 32.856C22.672 32.84 22.664 32.832 22.648 32.832C22.632 32.832 22.616 32.84 22.6 32.856C22.6 32.856 22.584 32.84 22.552 32.808C22.52 32.808 22.456 32.792 22.36 32.76C22.36 32.712 22.336 32.688 22.288 32.688C22.288 32.656 22.192 32.616 22 32.568C21.808 32.52 21.696 32.488 21.664 32.472C21.648 32.456 21.616 32.432 21.568 32.4C21.536 32.368 21.512 32.368 21.496 32.4C21.448 32.384 21.384 32.344 21.304 32.28C21.224 32.2 21.16 32.16 21.112 32.16L21.016 32.016H20.992L20.92 32.136C20.92 32.152 20.928 32.192 20.944 32.256C20.976 32.32 20.984 32.368 20.968 32.4C21 32.416 21.016 32.448 21.016 32.496C21.016 32.544 21.032 32.568 21.064 32.568C21.064 32.664 21.096 32.76 21.16 32.856C21.16 32.872 21.2 32.904 21.28 32.952C21.376 33 21.416 33.032 21.4 33.048C21.464 33.112 21.496 33.16 21.496 33.192C21.56 33.256 21.592 33.304 21.592 33.336C21.608 33.352 21.616 33.36 21.616 33.36C21.632 33.36 21.64 33.36 21.64 33.36C21.656 33.392 21.696 33.448 21.76 33.528C21.84 33.608 21.896 33.648 21.928 33.648H21.976C21.992 33.664 22.024 33.696 22.072 33.744C22.136 33.792 22.176 33.816 22.192 33.816H22.216C22.344 33.816 22.472 33.832 22.6 33.864C22.744 33.912 22.88 33.944 23.008 33.96C23.008 33.96 23.024 33.968 23.056 33.984C23.104 34 23.152 34.016 23.2 34.032C23.328 34.048 23.48 34.048 23.656 34.032C23.832 34.032 23.952 34.04 24.016 34.056ZM44.6303 35.904C44.5983 35.904 44.5583 35.904 44.5103 35.904C44.4623 35.904 44.4143 35.896 44.3663 35.88H44.3183C44.2703 35.848 44.2543 35.8 44.2703 35.736C44.2863 35.672 44.2543 35.64 44.1743 35.64C44.1103 35.64 44.0703 35.664 44.0543 35.712C44.0383 35.776 43.9983 35.808 43.9343 35.808H43.8383L43.8143 35.784C43.7503 35.768 43.6943 35.728 43.6463 35.664C43.5983 35.6 43.5503 35.584 43.5023 35.616C43.4383 35.664 43.3663 35.688 43.2863 35.688C43.1743 35.688 43.0703 35.648 42.9743 35.568C42.8943 35.488 42.8143 35.416 42.7343 35.352C42.7183 35.336 42.6943 35.336 42.6623 35.352C42.6303 35.384 42.5983 35.392 42.5663 35.376C42.5503 35.376 42.5343 35.368 42.5183 35.352L42.3503 35.28C42.3343 35.28 42.3263 35.272 42.3263 35.256C42.3263 35.256 42.3183 35.256 42.3023 35.256C42.1903 35.208 42.0703 35.136 41.9423 35.04C41.8303 34.944 41.7023 34.888 41.5583 34.872C41.5423 34.872 41.5343 34.864 41.5343 34.848C41.5343 34.848 41.5263 34.848 41.5103 34.848L41.0543 34.584C41.0543 34.584 41.0463 34.576 41.0303 34.56C41.0303 34.56 41.0223 34.56 41.0063 34.56C40.9743 34.448 40.9343 34.384 40.8863 34.368C40.8543 34.368 40.7743 34.36 40.6463 34.344L40.6223 34.32L40.2863 34.128C40.2863 34.112 40.2783 34.104 40.2623 34.104C40.2623 34.104 40.2543 34.088 40.2383 34.056C40.2223 34.04 40.2063 34.016 40.1903 33.984C39.7903 33.84 39.4463 33.616 39.1583 33.312C39.1263 33.28 39.0783 33.256 39.0143 33.24C38.9663 33.224 38.9263 33.2 38.8943 33.168L38.8703 33.144L38.3903 32.784C38.2623 32.816 38.1023 32.848 37.9103 32.88C37.7343 32.896 37.6143 32.896 37.5503 32.88H37.5263C37.5263 32.88 37.4863 32.88 37.4063 32.88C37.3743 32.912 37.3583 32.928 37.3583 32.928H37.2143C37.1663 32.928 37.1103 32.936 37.0463 32.952C36.9823 32.968 36.9263 32.976 36.8783 32.976C36.8623 32.976 36.8543 32.976 36.8543 32.976C36.8543 32.96 36.8463 32.952 36.8303 32.952C36.8143 32.952 36.7903 32.96 36.7583 32.976C36.7423 32.992 36.7183 33 36.6863 33C36.6703 33 36.6543 32.992 36.6383 32.976C36.6383 32.944 36.6223 32.928 36.5903 32.928C36.5743 32.928 36.5583 32.944 36.5423 32.976C36.5263 32.992 36.5023 32.992 36.4703 32.976H36.3983C36.3823 32.976 36.3663 32.976 36.3503 32.976C36.3343 32.96 36.3183 32.96 36.3023 32.976C36.3023 32.976 36.2943 32.984 36.2783 33C36.2783 33 36.2703 33 36.2543 33C36.2543 33 36.2383 32.984 36.2063 32.952C36.1743 32.952 36.1343 32.968 36.0863 33C36.0543 33.016 36.0223 33.016 35.9903 33H35.9423C35.9423 32.968 35.9263 32.952 35.8943 32.952V32.976H35.6783C35.5663 32.96 35.4623 32.928 35.3663 32.88C35.2863 32.816 35.2063 32.784 35.1263 32.784C35.1103 32.784 35.0943 32.792 35.0783 32.808C35.0783 32.808 35.0703 32.808 35.0543 32.808C35.0383 32.808 35.0223 32.808 35.0063 32.808C35.0063 32.792 34.9983 32.784 34.9823 32.784C34.9503 32.784 34.9343 32.792 34.9343 32.808C34.9023 32.776 34.8863 32.76 34.8863 32.76L34.6943 32.712C34.6783 32.68 34.5983 32.672 34.4543 32.688C34.3103 32.688 34.2223 32.688 34.1903 32.688C34.1743 32.656 34.0703 32.624 33.8783 32.592C33.7023 32.544 33.5983 32.512 33.5663 32.496C33.5503 32.496 33.5183 32.48 33.4703 32.448C33.4383 32.416 33.4143 32.408 33.3983 32.424C33.3503 32.424 33.2863 32.392 33.2063 32.328C33.1263 32.248 33.0623 32.208 33.0143 32.208C32.9983 32.176 32.9823 32.152 32.9663 32.136C32.9503 32.104 32.9423 32.08 32.9423 32.064H32.8943C32.6063 31.84 32.4143 31.648 32.3183 31.488C32.2223 31.328 32.1823 31.2 32.1983 31.104V31.032C32.1983 30.952 32.1903 30.856 32.1743 30.744C32.1743 30.632 32.1743 30.544 32.1743 30.48C32.2063 30.448 32.2303 30.384 32.2463 30.288C32.2783 30.192 32.2943 30.136 32.2943 30.12C32.2943 30.088 32.3023 30.072 32.3183 30.072C32.3343 30.056 32.3423 30.04 32.3423 30.024C32.3583 29.992 32.3663 29.96 32.3663 29.928C32.3663 29.896 32.3743 29.872 32.3903 29.856C32.3903 29.808 32.3983 29.768 32.4143 29.736C32.4303 29.704 32.4543 29.68 32.4863 29.664C32.5183 29.648 32.5423 29.632 32.5583 29.616C32.5903 29.584 32.6143 29.544 32.6303 29.496C32.6623 29.432 32.6863 29.384 32.7023 29.352C32.7343 29.32 32.7823 29.28 32.8463 29.232C32.9103 29.184 32.9503 29.144 32.9663 29.112C32.9983 29.064 33.0463 29.024 33.1103 28.992C33.1903 28.96 33.2543 28.92 33.3023 28.872C33.3183 28.84 33.3743 28.816 33.4703 28.8C33.5663 28.784 33.6223 28.768 33.6383 28.752C33.6703 28.72 33.7263 28.704 33.8063 28.704C33.8863 28.704 33.9263 28.736 33.9263 28.8C33.9263 28.864 33.8703 28.928 33.7583 28.992C33.6943 29.072 33.6543 29.128 33.6383 29.16C33.6223 29.176 33.5743 29.224 33.4943 29.304C33.4943 29.32 33.4863 29.368 33.4703 29.448C33.4543 29.528 33.4463 29.584 33.4463 29.616C33.4143 29.632 33.3983 29.648 33.3983 29.664C33.3983 29.68 33.3903 29.704 33.3743 29.736C33.3743 29.768 33.3503 29.808 33.3023 29.856C33.2863 29.872 33.2703 29.904 33.2543 29.952C33.2543 30 33.2463 30.04 33.2303 30.072C33.2143 30.072 33.1903 30.088 33.1583 30.12C33.1103 30.2 33.0943 30.304 33.1103 30.432C33.1263 30.544 33.1263 30.664 33.1103 30.792C33.0943 30.792 33.0943 30.848 33.1103 30.96C33.1423 31.056 33.1583 31.112 33.1583 31.128C33.1583 31.144 33.1663 31.168 33.1823 31.2C33.1983 31.216 33.2063 31.24 33.2063 31.272C33.1903 31.288 33.1823 31.312 33.1823 31.344C33.1823 31.36 33.1983 31.384 33.2303 31.416C33.3583 31.56 33.4543 31.664 33.5183 31.728C33.5983 31.776 33.6463 31.808 33.6623 31.824C33.8543 31.968 33.9983 32.072 34.0943 32.136C34.1903 32.2 34.2943 32.248 34.4063 32.28C34.5183 32.296 34.6863 32.336 34.9103 32.4C35.0383 32.432 35.1663 32.472 35.2943 32.52C35.4223 32.552 35.5503 32.568 35.6783 32.568C35.6943 32.568 35.7023 32.576 35.7023 32.592C35.7023 32.608 35.7103 32.616 35.7263 32.616C35.7903 32.616 35.8463 32.624 35.8943 32.64C35.9583 32.64 36.0223 32.64 36.0863 32.64C36.1023 32.64 36.1183 32.64 36.1343 32.64C36.1503 32.624 36.1663 32.616 36.1823 32.616C36.1983 32.616 36.2383 32.632 36.3023 32.664C36.4303 32.664 36.5583 32.664 36.6863 32.664C36.8143 32.664 36.9343 32.656 37.0463 32.64C37.1743 32.624 37.3023 32.608 37.4303 32.592C37.5583 32.56 37.6783 32.536 37.7903 32.52C37.8223 32.52 37.8623 32.52 37.9103 32.52C37.9583 32.504 38.0063 32.496 38.0543 32.496L37.8863 32.376C37.8703 32.376 37.8623 32.376 37.8623 32.376C37.8623 32.36 37.8543 32.352 37.8383 32.352L37.5023 32.064L37.4543 32.016C37.4383 32.016 37.4303 32 37.4303 31.968C37.4303 31.904 37.3983 31.872 37.3343 31.872C37.2863 31.872 37.2383 31.872 37.1903 31.872C37.1423 31.872 37.1183 31.832 37.1183 31.752C37.1023 31.752 37.0943 31.752 37.0943 31.752C37.0943 31.736 37.0943 31.728 37.0943 31.728C37.0303 31.6 36.9343 31.496 36.8063 31.416C36.6943 31.336 36.5823 31.24 36.4703 31.128L36.4463 31.104C36.4303 31.072 36.4143 31.056 36.3983 31.056C36.3823 31.04 36.3663 31.024 36.3503 31.008C36.3503 30.992 36.3423 30.984 36.3263 30.984C36.3263 30.984 36.3263 30.976 36.3263 30.96C36.2623 30.896 36.1823 30.832 36.0863 30.768C36.0063 30.688 35.9903 30.592 36.0383 30.48C35.9903 30.464 35.9343 30.456 35.8703 30.456C35.8063 30.456 35.7583 30.432 35.7263 30.384C35.6943 30.32 35.6623 30.264 35.6303 30.216C35.5983 30.152 35.5503 30.104 35.4863 30.072C35.4703 30.072 35.4623 30.072 35.4623 30.072C35.4623 30.056 35.4543 30.048 35.4383 30.048L35.0063 29.52L34.9823 29.496C34.9663 29.464 34.9423 29.44 34.9103 29.424C34.8943 29.408 34.8863 29.392 34.8863 29.376C34.8703 29.232 34.7903 29.12 34.6463 29.04C34.5183 28.96 34.4383 28.864 34.4063 28.752C34.3903 28.688 34.3663 28.632 34.3343 28.584C34.3183 28.52 34.2783 28.464 34.2143 28.416C34.2143 28.4 34.1583 28.336 34.0463 28.224C33.9503 28.096 33.9023 28.032 33.9023 28.032C33.8223 27.92 33.7823 27.784 33.7823 27.624C33.7823 27.4 33.8383 27.2 33.9503 27.024C34.0623 26.832 34.1743 26.776 34.2863 26.856C34.3343 26.888 34.3823 26.976 34.4303 27.12C34.4783 27.264 34.5663 27.4 34.6943 27.528V27.552C34.7423 27.664 34.7903 27.752 34.8383 27.816C34.8863 27.88 34.9503 27.992 35.0303 28.152C35.0303 28.152 35.0463 28.2 35.0783 28.296C35.1263 28.376 35.1583 28.416 35.1743 28.416C35.2063 28.496 35.2303 28.56 35.2463 28.608C35.2623 28.656 35.3263 28.688 35.4383 28.704C35.4543 28.704 35.4623 28.712 35.4623 28.728C35.4623 28.728 35.4703 28.728 35.4863 28.728C35.6943 29.064 35.9743 29.416 36.3263 29.784C36.3263 29.8 36.3263 29.808 36.3263 29.808C36.3423 29.808 36.3503 29.816 36.3503 29.832C36.4143 29.864 36.4303 29.92 36.3983 30C36.3663 30.064 36.3823 30.104 36.4463 30.12C36.4783 30.136 36.5103 30.128 36.5423 30.096C36.5743 30.064 36.5983 30.064 36.6143 30.096C36.7263 30.224 36.8303 30.344 36.9263 30.456C37.0223 30.568 37.1343 30.672 37.2623 30.768L37.2863 30.792C37.5263 31.016 37.7743 31.24 38.0303 31.464L38.0543 31.488C38.0863 31.536 38.1183 31.576 38.1503 31.608C38.1823 31.624 38.2063 31.656 38.2223 31.704C38.2383 31.768 38.2783 31.808 38.3423 31.824C38.4223 31.824 38.4863 31.848 38.5343 31.896C38.5503 31.896 38.5583 31.904 38.5583 31.92C38.6223 31.968 38.6863 32.016 38.7503 32.064C38.8303 32.112 38.9023 32.168 38.9663 32.232L39.0863 32.184C39.3263 32.088 39.5823 31.992 39.8543 31.896C40.1423 31.8 40.4383 31.68 40.7423 31.536C40.7743 31.52 40.7903 31.56 40.7903 31.656C40.8063 31.736 40.8303 31.768 40.8623 31.752C40.8943 31.736 40.9343 31.672 40.9823 31.56C41.0303 31.448 41.0703 31.384 41.1023 31.368C41.1663 31.288 41.2783 31.216 41.4383 31.152C41.6143 31.088 41.6863 31.072 41.6543 31.104C41.9743 30.928 42.2863 30.736 42.5903 30.528C42.9103 30.32 43.1903 30.096 43.4303 29.856L43.6223 29.616C43.6863 29.552 43.7343 29.552 43.7663 29.616C43.7503 29.648 43.7423 29.712 43.7423 29.808C43.8383 29.792 43.8943 29.72 43.9103 29.592C43.9263 29.448 43.9423 29.32 43.9583 29.208C44.0383 29.112 44.1183 29.024 44.1983 28.944C44.2783 28.848 44.3503 28.744 44.4143 28.632C44.4303 28.616 44.4543 28.608 44.4863 28.608C44.5343 28.608 44.5823 28.616 44.6303 28.632C44.6943 28.648 44.7423 28.624 44.7743 28.56C44.7423 28.48 44.7103 28.424 44.6783 28.392C44.6623 28.344 44.6703 28.28 44.7023 28.2H44.7263L44.7983 28.08C44.8783 27.952 44.9663 27.856 45.0623 27.792C45.1583 27.712 45.2143 27.568 45.2303 27.36H45.2543C45.5743 26.8 45.7343 26.2 45.7343 25.56C45.7343 24.824 45.5023 24.16 45.0383 23.568C44.5743 22.976 43.8463 22.632 42.8543 22.536C42.8383 22.52 42.7423 22.496 42.5663 22.464C42.4063 22.416 42.3103 22.392 42.2783 22.392C42.0863 22.376 41.9823 22.384 41.9663 22.416C41.9503 22.432 41.8623 22.424 41.7023 22.392C41.5423 22.312 41.3983 22.28 41.2703 22.296C41.1583 22.296 41.0863 22.288 41.0543 22.272L40.5023 22.344C39.9583 22.328 39.5663 22.36 39.3263 22.44C39.0863 22.52 38.8623 22.576 38.6543 22.608L37.7423 22.752C37.6783 22.736 37.6303 22.736 37.5983 22.752C37.5663 22.752 37.5343 22.768 37.5023 22.8L36.9503 22.968H36.9263C36.8943 22.984 36.8383 23 36.7583 23.016C36.6783 23.016 36.6223 23.04 36.5903 23.088C36.4783 23.104 36.3583 23.144 36.2303 23.208H36.2063C36.1423 23.32 36.0383 23.36 35.8943 23.328L35.5583 23.496C35.5263 23.512 35.4783 23.496 35.4143 23.448C35.3663 23.384 35.3263 23.336 35.2943 23.304C35.3423 23.368 35.3663 23.432 35.3663 23.496C35.3663 23.608 35.3023 23.664 35.1743 23.664C35.1103 23.696 35.0383 23.736 34.9583 23.784C34.8783 23.832 34.7983 23.872 34.7183 23.904C34.6703 23.936 34.5743 23.952 34.4303 23.952C34.3823 23.952 34.3263 23.952 34.2623 23.952C34.2143 23.952 34.1743 23.968 34.1423 24V24.024C34.1423 24.04 34.1503 24.064 34.1663 24.096C34.1823 24.128 34.1903 24.16 34.1903 24.192C34.1903 24.256 34.1423 24.312 34.0463 24.36C33.9663 24.408 33.9103 24.448 33.8783 24.48H33.8543C33.8383 24.496 33.7903 24.488 33.7103 24.456C33.6303 24.408 33.5823 24.392 33.5663 24.408V24.432C33.5663 24.464 33.5823 24.504 33.6143 24.552C33.6463 24.6 33.6543 24.632 33.6383 24.648H33.6143C33.5503 24.696 33.4863 24.744 33.4223 24.792C33.3583 24.84 33.3023 24.896 33.2543 24.96C33.1903 25.008 33.1263 25.064 33.0623 25.128C33.0143 25.176 32.9503 25.216 32.8703 25.248C32.8543 25.248 32.8223 25.216 32.7743 25.152C32.7263 25.088 32.6943 25.072 32.6783 25.104C32.6303 25.152 32.6063 25.24 32.6063 25.368C32.6223 25.496 32.6143 25.584 32.5823 25.632C32.5503 25.696 32.4943 25.736 32.4143 25.752C32.3343 25.752 32.2783 25.784 32.2463 25.848V25.872C32.2463 25.936 32.2623 26.008 32.2943 26.088C32.3263 26.168 32.3423 26.232 32.3423 26.28C32.3263 26.36 32.3183 26.44 32.3183 26.52C32.3183 26.584 32.3183 26.656 32.3183 26.736C32.3183 26.784 32.3183 26.824 32.3183 26.856C32.3183 26.888 32.3343 26.928 32.3663 26.976C32.4303 27.168 32.5583 27.352 32.7503 27.528C32.8463 27.592 32.8943 27.664 32.8943 27.744C32.8943 27.792 32.8623 27.816 32.7983 27.816C32.7023 27.816 32.5983 27.752 32.4863 27.624C32.4703 27.608 32.4143 27.568 32.3183 27.504C32.2383 27.44 32.1823 27.392 32.1503 27.36C31.8143 27.04 31.6063 26.72 31.5263 26.4C31.4463 26.08 31.4223 25.792 31.4543 25.536C31.4703 25.456 31.5023 25.4 31.5503 25.368C31.5983 25.336 31.6383 25.288 31.6703 25.224C31.7023 25.176 31.7103 25.136 31.6943 25.104C31.6783 25.072 31.6703 25.032 31.6703 24.984C31.6703 24.904 31.7263 24.816 31.8383 24.72C31.9663 24.608 32.0863 24.504 32.1983 24.408C32.3263 24.296 32.3903 24.224 32.3903 24.192C32.5663 24.032 32.7583 23.888 32.9663 23.76C33.1903 23.616 33.4223 23.488 33.6623 23.376H33.6863C33.7503 23.312 33.8143 23.28 33.8783 23.28C33.9423 23.28 34.0223 23.304 34.1183 23.352C34.1023 23.32 34.0783 23.296 34.0463 23.28C34.0143 23.248 34.0063 23.224 34.0223 23.208C34.2943 23.08 34.5743 22.968 34.8623 22.872C35.1503 22.76 35.4383 22.664 35.7263 22.584C35.8063 22.584 35.8703 22.56 35.9183 22.512L36.0383 22.488C36.1503 22.52 36.2303 22.496 36.2783 22.416C36.5343 22.336 36.9183 22.248 37.4303 22.152C37.9423 22.056 38.4943 21.984 39.0863 21.936C39.7423 21.888 40.3743 21.864 40.9823 21.864C41.7343 21.864 42.2623 21.888 42.5663 21.936C42.8383 21.968 43.2063 22.056 43.6703 22.2C44.1343 22.344 44.6063 22.576 45.0863 22.896C45.5663 23.2 45.9583 23.616 46.2623 24.144C46.5663 24.656 46.6783 25.312 46.5983 26.112C46.5823 26.4 46.5183 26.68 46.4063 26.952C46.2943 27.208 46.1743 27.464 46.0463 27.72C45.9983 27.8 45.9503 27.888 45.9023 27.984C45.8703 28.08 45.8303 28.168 45.7823 28.248C45.7663 28.264 45.7423 28.288 45.7103 28.32C45.6783 28.336 45.6543 28.36 45.6383 28.392L45.4463 28.608C45.3823 28.704 45.3103 28.8 45.2303 28.896C45.1663 28.992 45.0943 29.088 45.0143 29.184L44.9423 29.256C44.6543 29.544 44.3583 29.848 44.0543 30.168C43.7663 30.472 43.4543 30.736 43.1183 30.96V30.984C43.0703 31 43.0223 31.024 42.9743 31.056C42.9423 31.072 42.9103 31.096 42.8783 31.128L42.8543 31.152C42.8063 31.168 42.7583 31.184 42.7103 31.2C42.6783 31.216 42.6383 31.256 42.5903 31.32C42.5263 31.368 42.4703 31.392 42.4223 31.392C42.1983 31.504 41.9983 31.6 41.8223 31.68C41.6463 31.744 41.4943 31.808 41.3663 31.872C41.3663 31.872 41.2383 31.928 40.9823 32.04C40.7423 32.136 40.4623 32.24 40.1423 32.352C39.8383 32.448 39.5743 32.512 39.3503 32.544V32.568C39.3503 32.68 39.3983 32.736 39.4943 32.736C39.6063 32.736 39.6943 32.76 39.7583 32.808L39.7823 32.832C40.1343 33.072 40.4943 33.304 40.8623 33.528C41.2463 33.752 41.6383 33.976 42.0383 34.2C42.5823 34.488 43.0783 34.696 43.5263 34.824C43.9903 34.952 44.3983 35.016 44.7503 35.016C45.2623 35.016 45.6543 34.912 45.9263 34.704C46.1983 34.496 46.3343 34.248 46.3343 33.96C46.3343 33.816 46.3103 33.688 46.2623 33.576L46.2383 33.552C46.2223 33.456 46.1983 33.368 46.1663 33.288C46.1343 33.208 46.0783 33.144 45.9983 33.096C45.9823 33.08 45.9743 33.064 45.9743 33.048C45.9263 32.984 45.8383 32.936 45.7103 32.904C45.7103 32.888 45.7023 32.88 45.6863 32.88C45.6543 32.848 45.6383 32.824 45.6383 32.808C45.6223 32.808 45.6143 32.8 45.6143 32.784C45.5503 32.704 45.4943 32.64 45.4463 32.592C45.4143 32.544 45.3423 32.528 45.2303 32.544L45.2063 32.52C45.1743 32.488 45.1583 32.448 45.1583 32.4C45.1583 32.32 45.1823 32.264 45.2303 32.232C45.2943 32.184 45.3583 32.184 45.4223 32.232C45.4863 32.264 45.5343 32.296 45.5663 32.328C45.5823 32.328 45.5983 32.336 45.6143 32.352C45.6783 32.416 45.7343 32.48 45.7823 32.544C45.8303 32.608 45.9103 32.648 46.0223 32.664C46.0223 32.664 46.0223 32.672 46.0223 32.688C46.0223 32.688 46.0303 32.688 46.0463 32.688L46.1423 32.784C46.1903 32.912 46.2783 33.024 46.4063 33.12C46.4223 33.136 46.4303 33.152 46.4303 33.168C46.5103 33.248 46.5663 33.336 46.5983 33.432C46.6463 33.528 46.6863 33.632 46.7183 33.744V33.864C46.7183 33.96 46.7423 34.056 46.7903 34.152V34.2C46.7903 34.6 46.6543 34.96 46.3823 35.28C46.1103 35.616 45.6863 35.816 45.1103 35.88H45.0863C45.0383 35.848 44.9903 35.824 44.9423 35.808C44.9103 35.792 44.8783 35.784 44.8463 35.784C44.8143 35.784 44.7583 35.824 44.6783 35.904H44.6303Z" fill="black"/>
</g>
</g>
<defs>
<filter id="filter0_d_1_2" x="9.72" y="21.576" width="41.0703" height="22.328" filterUnits="userSpaceOnUse" color-interpolation-filters="sRGB">
<feFlood flood-opacity="0" result="BackgroundImageFix"/>
<feColorMatrix in="SourceAlpha" type="matrix" values="0 0 0 0 0 0 0 0 0 0 0 0 0 0 0 0 0 0 127 0" result="hardAlpha"/>
<feOffset dy="4"/>
<feGaussianBlur stdDeviation="2"/>
<feComposite in2="hardAlpha" operator="out"/>
<feColorMatrix type="matrix" values="0 0 0 0 0 0 0 0 0 0 0 0 0 0 0 0 0 0 0.25 0"/>
<feBlend mode="normal" in2="BackgroundImageFix" result="effect1_dropShadow_1_2"/>
<feBlend mode="normal" in="SourceGraphic" in2="effect1_dropShadow_1_2" result="shape"/>
</filter>
<linearGradient id="paint0_linear_1_2" x1="32.5" y1="14" x2="32.5" y2="42" gradientUnits="userSpaceOnUse">
<stop offset="0.125" stop-color="#B45C9C"/>
<stop offset="0.84" stop-color="#4E2843"/>
</linearGradient>
<clipPath id="clip0_1_2">
<rect width="65" height="53" fill="white"/>
</clipPath>
</defs>
</svg>
